<svg height="468pt" viewBox="0 -38 468.008 468" width="468pt" xmlns="http://www.w3.org/2000/svg"><path d="m152 272.003906-152-56v-168l152 48h8v168zm0 0" fill="#ea9d2d"/><path d="m296 216.003906-144 56v-176l144-48zm0 0" fill="#da922a"/><path d="m0 48.003906 153-47.99999975 143 47.99999975-144 48zm0 0" fill="#fbb540"/><path d="m152 144.003906 144-48v-48l-144 48zm0 0" fill="#ea9d2d"/><path d="m152 144.003906-152-48v-48l152 48zm0 0" fill="#f3af3e"/><path d="m96 166.324219c-.816406 0-1.625-.128907-2.398438-.375l-48-15.160157c-2.804687-.792968-4.953124-3.050781-5.613281-5.886718-.660156-2.839844.273438-5.808594 2.441407-7.757813 2.164062-1.949219 5.21875-2.566406 7.96875-1.613281l48 15.160156c3.769531 1.183594 6.109374 4.941406 5.511718 8.847656-.601562 3.902344-3.960937 6.785157-7.910156 6.785157zm0 0" fill="#da922a"/><path d="m436 240.003906c0 66.273438-53.726562 120-120 120s-120-53.726562-120-120c0-66.273437 53.726562-120 120-120s120 53.726563 120 120zm0 0" fill="#fbd699"/><path d="m316 160.003906-56 80 32 80h48l32-80zm0 0" fill="#ebebeb"/><path d="m308 232.003906h16v-60.566406l-8-11.433594-8 11.433594zm0 0" fill="#cbcbcb"/><path d="m332 240.003906c0 8.835938-7.164062 16-16 16s-16-7.164062-16-16c0-8.835937 7.164062-16 16-16s16 7.164063 16 16zm0 0" fill="#cbcbcb"/><path d="m340 320.003906h-48v37.601563c15.839844 3.210937 32.160156 3.210937 48 0zm0 0" fill="#69b0bb"/><path d="m316 392.003906c-3.242188 0-6.441406-.101562-9.601562-.304687l.992187-16c5.035156.316406 10.082031.355469 15.121094.121093l.746093 16c-2.414062.121094-4.832031.183594-7.257812.183594zm24-1.878906-2.503906-15.808594c4.972656-.796875 9.898437-1.867187 14.75-3.199218l4.25 15.421874c-5.429688 1.496094-10.9375 2.691407-16.496094 3.585938zm-50.398438-.410156c-5.550781-.96875-11.039062-2.246094-16.441406-3.832032l4.503906-15.351562c4.832032 1.417969 9.738282 2.5625 14.695313 3.433594zm82.894532-8.558594-5.945313-14.855469c4.671875-1.878906 9.234375-4.015625 13.664063-6.402343l7.570312 14.089843c-4.960937 2.671875-10.0625 5.066407-15.289062 7.167969zm-115.25-.929688c-5.199219-2.175781-10.273438-4.640624-15.199219-7.382812l7.792969-13.976562c4.40625 2.453124 8.949218 4.660156 13.601562 6.609374zm144.9375-15-9.085938-13.175781c4.144532-2.859375 8.128906-5.941406 11.933594-9.238281l10.488281 12.078125c-4.253906 3.6875-8.703125 7.136719-13.335937 10.335937zm-174.398438-1.414062c-4.585937-3.269531-8.984375-6.792969-13.175781-10.550781l10.679687-11.914063c3.75 3.359375 7.683594 6.511719 11.78125 9.441406zm199.832032-20.65625-11.753907-10.855469c3.410157-3.703125 6.617188-7.585937 9.601563-11.640625l12.878906 9.488282c-3.324219 4.527343-6.898438 8.871093-10.703125 13.007812zm-224.945313-1.824219c-3.746094-4.195312-7.257813-8.589843-10.527344-13.167969l13.015625-9.296874c2.929688 4.101562 6.078125 8.039062 9.441406 11.792968zm244.96875-25.328125-13.839844-8c2.519531-4.355468 4.792969-8.847656 6.816407-13.457031l14.65625 6.402344c-2.265626 5.15625-4.8125 10.179687-7.632813 15.054687zm-264.496094-2.128906c-2.738281-4.925781-5.203125-10-7.375-15.199219l14.75-6.183593c1.945313 4.652343 4.148438 9.191406 6.601563 13.601562zm278.03125-28.75-15.28125-4.753906c1.496094-4.808594 2.71875-9.695313 3.664063-14.640625l15.714844 3.015625c-1.0625 5.542968-2.429688 11.019531-4.097657 16.410156zm-291.054687-2.335938c-1.585938-5.40625-2.867188-10.894531-3.839844-16.441406l15.757812-2.757812c.871094 4.960937 2.019532 9.867187 3.433594 14.703125zm297.40625-30.761718-15.953125-1.253906c.28125-3.570313.425781-7.203126.425781-10.800782 0-1.441406 0-2.878906-.0625-4.3125l16-.488281c.046875 1.601563.070312 3.199219.070312 4.800781-.003906 4.074219-.164062 8.101563-.480468 12.085938zm-303.199219-2.398438c-.199219-3.199218-.296875-6.402344-.296875-9.601562.003906-5.613282.3125-11.21875.921875-16.800782l15.910156 1.753907c-.5625 4.988281-.851562 10.003906-.863281 15.023437 0 2.894532.089844 5.777344.265625 8.625zm286.335937-28.96875c-.707031-4.984375-1.695312-9.925781-2.960937-14.800781l15.496094-4c1.410156 5.453125 2.515625 10.984375 3.3125 16.5625zm-267.351562-10.632812-15.617188-3.511719c1.238282-5.496094 2.785157-10.921875 4.632813-16.246094l15.113281 5.238281c-1.648437 4.757813-3.027344 9.605469-4.128906 14.519532zm259.777344-18.558594c-1.804688-4.703125-3.863282-9.300781-6.167969-13.777344l14.214844-7.34375c2.582031 5.007813 4.882812 10.152344 6.894531 15.417969zm-249.921875-9.929688-14.398438-6.886718c2.425781-5.082032 5.128907-10.027344 8.101563-14.808594l13.601562 8.449219c-2.675781 4.277343-5.117187 8.699219-7.304687 13.246093zm236.089843-16.855468c-2.792968-4.191406-5.816406-8.222656-9.058593-12.078125l12.265625-10.28125c3.613281 4.308593 6.988281 8.816406 10.109375 13.496093zm-220.160156-8.800782-12.570312-9.894531c3.484375-4.417969 7.207031-8.644531 11.152344-12.65625l11.410156 11.199219c-3.539063 3.613281-6.875 7.414062-9.992188 11.394531zm200.796875-14.328124c-3.652343-3.464844-7.488281-6.726563-11.496093-9.773438l9.707031-12.722656c4.460937 3.417968 8.734375 7.074218 12.796875 10.953125zm-179.597656-7.199219-10.097656-12.414063c4.367187-3.550781 8.929687-6.855468 13.664062-9.898437l8.625 13.5625c-4.234375 2.707031-8.3125 5.644531-12.222656 8.796875zm155.613281-11.121094c-4.320312-2.589844-8.78125-4.941406-13.367187-7.039063l6.65625-14.550781c5.121093 2.34375 10.109375 4.972657 14.9375 7.871094zm-130.269531-5.191406-7.113281-14.328125c5.03125-2.480469 10.195312-4.679688 15.472656-6.582032l5.472656 15.039063c-4.726562 1.722656-9.355468 3.707031-13.863281 5.945313zm102.847656-7.359375c-4.785156-1.566406-9.65625-2.867188-14.585937-3.894532l3.265625-15.664062c5.515625 1.148438 10.964843 2.609375 16.320312 4.367188zm-74.527343-2.945313-3.761719-15.558593c5.476562-1.320313 11.019531-2.335938 16.609375-3.039063l2.007812 15.871094c-5.011718.65625-9.980468 1.589843-14.886718 2.800781zm45.015624-3.199219c-4.3125-.335937-8.671874-.535156-12.976562-.535156h-2.152344l-.246094-16h2.398438c4.800781 0 9.601562.230469 14.398438.679688zm0 0" fill="#f7ba61"/><path d="m292 320.003906h48v16h-48zm0 0" fill="#64a8b2"/></svg>