<?xml version="1.0" encoding="iso-8859-1"?>
<!-- Generator: Adobe Illustrator 21.0.0, SVG Export Plug-In . SVG Version: 6.00 Build 0)  -->
<svg xmlns="http://www.w3.org/2000/svg" xmlns:xlink="http://www.w3.org/1999/xlink" version="1.1" id="Capa_1" x="0px" y="0px" viewBox="0 0 512 512" style="enable-background:new 0 0 512 512;" xml:space="preserve" width="512" height="512">
<g>
	<path style="fill:#50536E;" d="M456.679,357H55.321c-11.493,0-20.81-9.317-20.81-20.81V62.532c0-11.493,9.317-20.81,20.81-20.81   h401.358c11.493,0,20.81,9.317,20.81,20.81V336.19C477.489,347.683,468.172,357,456.679,357z"/>
	<path style="fill:#484B63;" d="M456.885,41.722H425.98c11.379,0,20.604,9.41,20.604,21.019v273.241   c0,11.608-9.225,21.018-20.604,21.018h30.905c11.379,0,20.604-9.41,20.604-21.018V62.741   C477.489,51.133,468.264,41.722,456.885,41.722z"/>
	<path style="fill:#E89776;" d="M76.748,433.12L76.748,433.12c0,4.191,3.375,7.588,7.538,7.588H211.94   c18.503,0,36.703,4.733,52.891,13.755h0c16.188,9.022,34.388,13.755,52.891,13.755h117.529v-17.697   c0-30.053-24.201-54.416-54.055-54.416H113.518C93.211,396.105,76.748,412.677,76.748,433.12z"/>
	<path style="fill:#D8D5ED;" d="M481.095,396.105H30.905C13.837,396.105,0,382.268,0,365.199v-6.181c0-4.552,3.69-8.241,8.241-8.241   h495.517c4.552,0,8.241,3.69,8.241,8.241v6.181C512,382.268,498.163,396.105,481.095,396.105z"/>
	<path style="fill:#BEBADE;" d="M503.759,350.777h-30.905c4.552,0,8.241,3.69,8.241,8.241v6.181   c0,17.069-13.837,30.905-30.905,30.905h30.905c17.069,0,30.905-13.837,30.905-30.905v-6.181   C512,354.467,508.31,350.777,503.759,350.777z"/>
	
		<rect x="132.378" y="5.666" transform="matrix(-1.836970e-16 1 -1 -1.836970e-16 452.2492 -59.7508)" style="fill:#B5FCFF;" width="247.243" height="381.167"/>
	<rect x="415.678" y="72.627" style="fill:#71F6FC;" width="30.905" height="247.243"/>
	<g>
		<path style="fill:#50536E;" d="M111.774,136.229h82.415c4.143,0,7.5-3.357,7.5-7.5s-3.357-7.5-7.5-7.5h-82.415    c-4.143,0-7.5,3.357-7.5,7.5S107.632,136.229,111.774,136.229z"/>
		<path style="fill:#50536E;" d="M194.189,151.14h-82.415c-4.143,0-7.5,3.357-7.5,7.5s3.357,7.5,7.5,7.5h82.415    c4.143,0,7.5-3.357,7.5-7.5S198.332,151.14,194.189,151.14z"/>
		<path style="fill:#50536E;" d="M194.189,181.052h-82.415c-4.143,0-7.5,3.357-7.5,7.5s3.357,7.5,7.5,7.5h82.415    c4.143,0,7.5-3.357,7.5-7.5S198.332,181.052,194.189,181.052z"/>
		<path style="fill:#50536E;" d="M194.189,210.963h-82.415c-4.143,0-7.5,3.357-7.5,7.5s3.357,7.5,7.5,7.5h82.415    c4.143,0,7.5-3.357,7.5-7.5S198.332,210.963,194.189,210.963z"/>
		<path style="fill:#50536E;" d="M194.189,240.874h-82.415c-4.143,0-7.5,3.357-7.5,7.5s3.357,7.5,7.5,7.5h82.415    c4.143,0,7.5-3.357,7.5-7.5S198.332,240.874,194.189,240.874z"/>
	</g>
	<path style="fill:#FF2C5C;" d="M396.105,188.008c0,6.198-6.486,11.461-8.014,17.178c-1.581,5.915,1.358,13.707-1.638,18.886   c-3.039,5.253-11.285,6.586-15.549,10.849c-4.263,4.263-5.596,12.509-10.849,15.549c-5.179,2.996-12.971,0.057-18.885,1.638   c-5.717,1.528-10.98,8.014-17.178,8.014c-6.198,0-11.461-6.486-17.178-8.014c-5.915-1.581-13.707,1.358-18.886-1.638   c-5.253-3.039-6.586-11.285-10.849-15.549c-4.263-4.263-12.509-5.596-15.549-10.849c-2.996-5.179-0.057-12.971-1.638-18.885   c-1.528-5.716-8.014-10.98-8.014-17.178c0-6.198,6.486-11.461,8.014-17.178c1.581-5.915-1.358-13.707,1.638-18.886   c3.039-5.253,11.285-6.586,15.549-10.849c4.263-4.263,5.596-12.509,10.849-15.549c5.179-2.996,12.971-0.057,18.885-1.638   c5.716-1.528,10.98-8.014,17.178-8.014c6.198,0,11.461,6.486,17.178,8.014c5.915,1.581,13.707-1.358,18.886,1.638   c5.253,3.039,6.586,11.285,10.849,15.549s12.509,5.596,15.549,10.849c2.996,5.179,0.057,12.971,1.638,18.885   C389.619,176.547,396.105,181.81,396.105,188.008z"/>
	<g>
		<circle style="fill:#FFD659;" cx="300.955" cy="164.971" r="7.726"/>
		<circle style="fill:#FFD659;" cx="347.029" cy="211.045" r="7.726"/>
		<path style="fill:#FFD659;" d="M352.692,159.308c-2.93-2.928-7.678-2.928-10.607,0l-46.793,46.793    c-2.929,2.93-2.929,7.678,0,10.607c1.465,1.464,3.385,2.196,5.304,2.196s3.839-0.732,5.304-2.196l46.793-46.793    C355.621,166.985,355.621,162.237,352.692,159.308z"/>
	</g>
	<path style="fill:#EBAD88;" d="M342.045,378.561H228.633c-16.337,0-29.58,13.243-29.58,29.58l0,0c0,3.047,2.42,5.538,5.466,5.621   c17.741,0.483,73.445,2.724,88.539,12.007c18.03,11.089,47.96,42.448,69.052,42.448c21.092,0,73.143,0,73.143,0   S455.34,378.561,342.045,378.561z"/>
	<path style="fill:#E89776;" d="M342.045,378.561H311.14c113.295,0,93.206,89.656,93.206,89.656c16.628,0,30.905,0,30.905,0   S455.34,378.561,342.045,378.561z"/>
	<path style="fill:#FF2C5C;" d="M482.532,512H349.513c-1.465,0-2.813-0.801-3.513-2.087l-20.072-36.867   c-1.298-2.385,0.106-5.342,2.774-5.844l117.884-22.163c1.648-0.31,3.315,0.442,4.174,1.882l35.207,59.03   C487.558,508.617,485.637,512,482.532,512z"/>
	<path style="fill:#E62753;" d="M446.587,445.039l-25.045,4.708L458.67,512h23.862c3.104,0,5.026-3.383,3.435-6.049l-35.207-59.03   C449.902,445.481,448.235,444.729,446.587,445.039z"/>
	<g>
		<path style="fill:#FFD659;" d="M58.221,4.137l10.119,20.326c1.09,2.19,3.198,3.708,5.636,4.059l22.626,3.26    c6.139,0.884,8.591,8.364,4.148,12.658L84.377,60.262c-1.764,1.705-2.569,4.161-2.153,6.568l3.865,22.341    c1.049,6.062-5.369,10.685-10.86,7.823L54.992,86.446c-2.181-1.137-4.786-1.137-6.966,0L27.789,96.994    c-5.491,2.862-11.909-1.761-10.86-7.823l3.865-22.341c0.416-2.407-0.389-4.864-2.153-6.568L2.269,44.44    c-4.442-4.293-1.991-11.773,4.148-12.658l22.626-3.26c2.438-0.351,4.545-1.869,5.636-4.059L44.797,4.137    C47.542-1.379,55.475-1.379,58.221,4.137z"/>
		<path style="fill:#FFBD54;" d="M84.372,60.263c-1.764,1.7-2.563,4.159-2.151,6.567l3.863,22.341    c1.056,6.065-5.37,10.688-10.856,7.829l-2.923-1.532c-1.429-39.544-19.96-54.314-28.948-88.437L44.8,4.133    c2.743-5.511,10.675-5.511,13.418,0l10.122,20.332c1.094,2.189,3.194,3.708,5.64,4.056l22.625,3.258    c6.13,0.888,8.589,8.37,4.146,12.658L84.372,60.263z"/>
	</g>
	<g>
		<path style="fill:#FFD659;" d="M467.203,232.322l10.119,20.326c1.09,2.19,3.198,3.708,5.636,4.059l22.626,3.26    c6.139,0.884,8.591,8.364,4.148,12.658l-16.372,15.822c-1.764,1.705-2.569,4.161-2.153,6.568l3.865,22.341    c1.049,6.062-5.369,10.685-10.86,7.823l-20.237-10.548c-2.181-1.137-4.786-1.137-6.966,0l-20.237,10.548    c-5.491,2.862-11.909-1.761-10.86-7.823l3.865-22.341c0.416-2.407-0.389-4.864-2.153-6.568l-16.372-15.822    c-4.442-4.293-1.991-11.773,4.148-12.658l22.626-3.26c2.438-0.351,4.545-1.869,5.636-4.059l10.119-20.326    C456.524,226.807,464.457,226.807,467.203,232.322z"/>
		<path style="fill:#FFBD54;" d="M493.353,288.448c-1.764,1.7-2.563,4.159-2.151,6.567l3.863,22.341    c1.056,6.065-5.37,10.688-10.856,7.829l-2.923-1.532c-1.429-39.544-19.96-54.314-28.948-88.437l1.442-2.897    c2.743-5.511,10.675-5.511,13.418,0l10.122,20.332c1.094,2.189,3.194,3.708,5.64,4.056l22.625,3.258    c6.13,0.889,8.589,8.37,4.146,12.658L493.353,288.448z"/>
	</g>
</g>















</svg>
